<svg data-v-fde0c5aa="" xmlns="http://www.w3.org/2000/svg" viewBox="0 0 300 300" class="iconLeft"><!----><defs data-v-fde0c5aa=""><!----></defs><rect data-v-fde0c5aa="" fill="#11F76B" x="0" y="0" width="300px" height="300px" class="logo-background-square"></rect><defs data-v-fde0c5aa=""><!----></defs><g data-v-fde0c5aa="" id="9767d770-95bc-4547-b06c-962b30725f15" fill="#640D85" transform="matrix(2.04268969088224,0,0,2.04268969088224,94.86897847030725,138.84691427073744)"><path d="M2.45 10.50L3.30 5.95L8.01 5.95L8.25 4.76L3.54 4.76L4.14 1.61L9.55 1.61L9.79 0.42L3.05 0.42L1.12 10.50ZM17.01 6.34C16.65 8.27 15.67 9.52 13.80 9.52C11.94 9.52 11.42 8.27 11.79 6.34L12.94 0.42L11.61 0.42L10.49 6.27C9.98 8.86 10.84 10.71 13.57 10.71C16.32 10.71 17.86 8.86 18.37 6.27L19.49 0.42L18.16 0.42ZM21.07 10.50L22.58 2.58L26.33 10.50L27.69 10.50L29.62 0.42L28.35 0.42L26.81 8.34L23.09 0.42L21.73 0.42L19.80 10.50ZM33.22 10.50C36.47 10.50 38.39 8.58 39.00 5.43C39.62 2.18 38.25 0.42 35.00 0.42L31.86 0.42L29.93 10.50ZM32.96 1.61L34.73 1.61C36.95 1.61 38.18 2.56 37.63 5.42C37.13 8.04 35.76 9.32 33.29 9.32L31.47 9.32ZM39.86 10.50L41.19 10.50L41.96 6.44L43.33 6.44C44.88 6.44 45.42 7.42 45.91 8.81L46.55 10.50L48.08 10.50L47.15 8.16C46.83 7.29 46.35 6.38 45.39 6.09C47.14 5.80 48.15 4.91 48.45 3.37C48.89 1.13 47.18 0.42 45.15 0.42L41.79 0.42ZM42.88 1.61L45.02 1.61C46.35 1.61 47.35 2.04 47.08 3.42C46.84 4.63 45.95 5.25 44.37 5.25L42.20 5.25ZM54.49 0.42L48.64 10.50L49.99 10.50L51.38 8.05L55.92 8.05L56.36 10.50L57.81 10.50L55.85 0.42ZM54.87 1.95L55.71 6.86L52.05 6.86ZM60.40 10.50L62.33 0.42L61.00 0.42L59.07 10.50ZM62.83 7.28C62.54 9.56 63.83 10.71 66.36 10.71C68.14 10.71 70.25 9.77 70.64 7.71C70.94 6.17 70.08 5.43 68.70 5.01C67.77 4.75 66.37 4.33 65.94 4.14C65.41 3.93 65.21 3.50 65.31 2.98C65.55 1.81 66.81 1.33 67.86 1.33C69.36 1.33 70.06 2.02 69.87 3.30L71.15 3.30C71.55 1.25 70.27 0.21 68.03 0.21C66.33 0.21 64.39 1.15 64.02 3.07C63.83 4.02 63.94 4.89 65.63 5.47C66.19 5.67 67.90 6.09 68.38 6.30C69.12 6.61 69.33 7.14 69.20 7.78C69.01 8.86 67.97 9.59 66.51 9.59C64.93 9.59 63.97 8.78 64.16 7.17L62.83 7.28ZM79.04 10.50L79.25 9.31L73.49 9.31L74.13 5.95L79.06 5.95L79.30 4.76L74.37 4.76L74.97 1.61L80.60 1.61L80.84 0.42L73.88 0.42L71.95 10.50Z"></path></g><defs data-v-fde0c5aa=""><!----></defs><g data-v-fde0c5aa="" id="beb871df-0180-4bca-a854-4505a8ca34b0" stroke="none" fill="#640D85" transform="matrix(1.3798997166823646,0,0,1.3798997166823646,40,127.92091430423714)"><path d="M12.289 5.343v19.9L1 13.954V5.343h11.289m1-1H0v10.026l13.289 13.289V4.343zM31 5.343v8.612L19.711 25.243v-19.9H31m1-1H18.711v23.315L32 14.369V4.343z"></path></g><!----></svg>