<svg data-v-fde0c5aa="" xmlns="http://www.w3.org/2000/svg" viewBox="0 0 300 300" class="iconLeftSlogan"><!----><defs data-v-fde0c5aa=""><!----></defs><rect data-v-fde0c5aa="" fill="#360CAA" x="0" y="0" width="300px" height="300px" class="logo-background-square"></rect><defs data-v-fde0c5aa=""><!----></defs><g data-v-fde0c5aa="" id="39baec14-9afe-4e24-a2d9-e827830a5d85" fill="#ffffff" transform="matrix(1.6395033319438903,0,0,1.6395033319438903,92.3280022865745,122.91637437428437)"><path d="M1.36 14L1.36 14Q1.26 14 1.20 13.94L1.20 13.94L1.20 13.94Q1.15 13.89 1.15 13.79L1.15 13.79L1.15 4.41L1.15 4.41Q1.15 4.31 1.20 4.26L1.20 4.26L1.20 4.26Q1.26 4.20 1.36 4.20L1.36 4.20L4.68 4.20L4.68 4.20Q6.13 4.20 7 4.96L7 4.96L7 4.96Q7.87 5.73 7.87 7L7.87 7L7.87 11.20L7.87 11.20Q7.87 12.47 7 13.24L7 13.24L7 13.24Q6.13 14 4.68 14L4.68 14L1.36 14ZM2.49 12.77L2.49 12.77Q2.49 12.84 2.56 12.84L2.56 12.84L4.73 12.84L4.73 12.84Q5.54 12.84 6.03 12.34L6.03 12.34L6.03 12.34Q6.51 11.84 6.52 11.00L6.52 11.00L6.52 7.20L6.52 7.20Q6.52 6.36 6.04 5.86L6.04 5.86L6.04 5.86Q5.56 5.36 4.73 5.36L4.73 5.36L2.56 5.36L2.56 5.36Q2.49 5.36 2.49 5.43L2.49 5.43L2.49 12.77ZM9.35 10.30L9.35 10.30Q9.25 10.30 9.20 10.25L9.20 10.25L9.20 10.25Q9.14 10.19 9.14 10.09L9.14 10.09L9.14 9.35L9.14 9.35Q9.14 9.25 9.20 9.20L9.20 9.20L9.20 9.20Q9.25 9.14 9.35 9.14L9.35 9.14L13.54 9.14L13.54 9.14Q13.64 9.14 13.69 9.20L13.69 9.20L13.69 9.20Q13.75 9.25 13.75 9.35L13.75 9.35L13.75 10.09L13.75 10.09Q13.75 10.19 13.69 10.25L13.69 10.25L13.69 10.25Q13.64 10.30 13.54 10.30L13.54 10.30L9.35 10.30ZM18.55 14.13L18.55 14.13Q17.54 14.13 16.77 13.73L16.77 13.73L16.77 13.73Q15.99 13.33 15.56 12.59L15.56 12.59L15.56 12.59Q15.13 11.86 15.13 10.91L15.13 10.91L15.13 7.28L15.13 7.28Q15.13 6.33 15.56 5.61L15.56 5.61L15.56 5.61Q15.99 4.89 16.77 4.49L16.77 4.49L16.77 4.49Q17.54 4.09 18.55 4.09L18.55 4.09L18.55 4.09Q19.56 4.09 20.33 4.47L20.33 4.47L20.33 4.47Q21.10 4.86 21.53 5.56L21.53 5.56L21.53 5.56Q21.95 6.26 21.95 7.18L21.95 7.18L21.95 7.18Q21.95 7.32 21.74 7.35L21.74 7.35L20.82 7.41L20.76 7.41L20.76 7.41Q20.69 7.41 20.65 7.38L20.65 7.38L20.65 7.38Q20.61 7.35 20.61 7.32L20.61 7.32L20.61 7.24L20.61 7.24Q20.61 6.34 20.05 5.80L20.05 5.80L20.05 5.80Q19.49 5.25 18.55 5.25L18.55 5.25L18.55 5.25Q17.61 5.25 17.05 5.80L17.05 5.80L17.05 5.80Q16.48 6.34 16.48 7.24L16.48 7.24L16.48 10.96L16.48 10.96Q16.48 11.86 17.05 12.40L17.05 12.40L17.05 12.40Q17.61 12.95 18.55 12.95L18.55 12.95L18.55 12.95Q19.49 12.95 20.05 12.40L20.05 12.40L20.05 12.40Q20.61 11.86 20.61 10.96L20.61 10.96L20.61 10.96Q20.61 10.88 20.66 10.84L20.66 10.84L20.66 10.84Q20.72 10.79 20.82 10.81L20.82 10.81L21.74 10.86L21.74 10.86Q21.95 10.89 21.95 10.93L21.95 10.93L21.95 11.00L21.95 11.00Q21.95 11.93 21.53 12.63L21.53 12.63L21.53 12.63Q21.10 13.34 20.33 13.73L20.33 13.73L20.33 13.73Q19.56 14.13 18.55 14.13L18.55 14.13ZM26.85 6.80L26.85 6.80Q27.27 6.80 27.61 6.96L27.61 6.96L27.61 6.96Q27.76 7.04 27.72 7.22L27.72 7.22L27.52 8.13L27.52 8.13Q27.51 8.27 27.38 8.27L27.38 8.27L27.38 8.27Q27.31 8.27 27.27 8.26L27.27 8.26L27.27 8.26Q27.06 8.19 26.80 8.19L26.80 8.19L26.80 8.19Q26.66 8.19 26.59 8.20L26.59 8.20L26.59 8.20Q25.93 8.23 25.50 8.66L25.50 8.66L25.50 8.66Q25.07 9.09 25.07 9.77L25.07 9.77L25.07 13.79L25.07 13.79Q25.07 13.89 25.02 13.94L25.02 13.94L25.02 13.94Q24.96 14 24.86 14L24.86 14L23.94 14L23.94 14Q23.84 14 23.79 13.94L23.79 13.94L23.79 13.94Q23.73 13.89 23.73 13.79L23.73 13.79L23.73 7.08L23.73 7.08Q23.73 6.99 23.79 6.93L23.79 6.93L23.79 6.93Q23.84 6.87 23.94 6.87L23.94 6.87L24.86 6.87L24.86 6.87Q24.96 6.87 25.02 6.93L25.02 6.93L25.02 6.93Q25.07 6.99 25.07 7.08L25.07 7.08L25.07 7.73L25.07 7.73Q25.07 7.78 25.09 7.79L25.09 7.79L25.09 7.79Q25.12 7.80 25.14 7.76L25.14 7.76L25.14 7.76Q25.77 6.80 26.85 6.80L26.85 6.80ZM31.85 14.11L31.85 14.11Q30.80 14.11 30.04 13.59L30.04 13.59L30.04 13.59Q29.27 13.06 28.97 12.12L28.97 12.12L28.97 12.12Q28.71 11.37 28.71 10.42L28.71 10.42L28.71 10.42Q28.71 9.42 28.95 8.74L28.95 8.74L28.95 8.74Q29.26 7.81 30.03 7.29L30.03 7.29L30.03 7.29Q30.80 6.76 31.86 6.76L31.86 6.76L31.86 6.76Q32.87 6.76 33.62 7.29L33.62 7.29L33.62 7.29Q34.37 7.81 34.69 8.72L34.69 8.72L34.69 8.72Q34.94 9.44 34.94 10.40L34.94 10.40L34.94 10.40Q34.94 11.38 34.69 12.12L34.69 12.12L34.69 12.12Q34.38 13.06 33.63 13.59L33.63 13.59L33.63 13.59Q32.87 14.11 31.85 14.11L31.85 14.11ZM31.85 12.95L31.85 12.95Q32.41 12.95 32.83 12.63L32.83 12.63L32.83 12.63Q33.25 12.32 33.43 11.75L33.43 11.75L33.43 11.75Q33.59 11.21 33.59 10.43L33.59 10.43L33.59 10.43Q33.59 9.65 33.45 9.13L33.45 9.13L33.45 9.13Q33.26 8.55 32.84 8.24L32.84 8.24L32.84 8.24Q32.42 7.92 31.82 7.92L31.82 7.92L31.82 7.92Q31.25 7.92 30.83 8.24L30.83 8.24L30.83 8.24Q30.41 8.55 30.23 9.13L30.23 9.13L30.23 9.13Q30.07 9.62 30.07 10.43L30.07 10.43L30.07 10.43Q30.07 11.24 30.23 11.75L30.23 11.75L30.23 11.75Q30.39 12.32 30.82 12.63L30.82 12.63L30.82 12.63Q31.25 12.95 31.85 12.95L31.85 12.95ZM38.33 14L38.33 14Q38.14 14 38.09 13.82L38.09 13.82L36.13 7.11L36.13 7.11Q36.12 7.08 36.12 7.04L36.12 7.04L36.12 7.04Q36.12 6.87 36.32 6.87L36.32 6.87L37.27 6.87L37.27 6.87Q37.45 6.87 37.49 7.06L37.49 7.06L38.79 12.05L38.79 12.05Q38.81 12.10 38.84 12.10L38.84 12.10L38.84 12.10Q38.86 12.10 38.88 12.05L38.88 12.05L40.21 7.07L40.21 7.07Q40.25 6.89 40.43 6.89L40.43 6.89L41.30 6.89L41.30 6.89Q41.48 6.89 41.52 7.07L41.52 7.07L42.90 12.07L42.90 12.07Q42.91 12.11 42.94 12.11L42.94 12.11L42.94 12.11Q42.97 12.11 42.98 12.07L42.98 12.07L44.34 7.06L44.34 7.06Q44.38 6.87 44.56 6.87L44.56 6.87L45.51 6.89L45.51 6.89Q45.63 6.89 45.67 6.95L45.67 6.95L45.67 6.95Q45.72 7.01 45.70 7.13L45.70 7.13L43.71 13.82L43.71 13.82Q43.69 13.90 43.62 13.95L43.62 13.95L43.62 13.95Q43.55 14 43.47 14L43.47 14L42.49 14L42.49 14Q42.29 14 42.25 13.82L42.25 13.82L40.91 9.18L40.91 9.18Q40.89 9.14 40.87 9.14L40.87 9.14L40.87 9.14Q40.84 9.14 40.82 9.18L40.82 9.18L39.55 13.82L39.55 13.82Q39.51 14 39.33 14L39.33 14L38.33 14ZM51.44 4.41L51.44 4.41Q51.44 4.31 51.49 4.26L51.49 4.26L51.49 4.26Q51.55 4.20 51.65 4.20L51.65 4.20L52.57 4.20L52.57 4.20Q52.67 4.20 52.72 4.26L52.72 4.26L52.72 4.26Q52.78 4.31 52.78 4.41L52.78 4.41L52.78 13.79L52.78 13.79Q52.78 13.89 52.72 13.94L52.72 13.94L52.72 13.94Q52.67 14 52.57 14L52.57 14L51.65 14L51.65 14Q51.55 14 51.49 13.94L51.49 13.94L51.49 13.94Q51.44 13.89 51.44 13.79L51.44 13.79L51.44 13.43L51.44 13.43Q51.44 13.38 51.41 13.37L51.41 13.37L51.41 13.37Q51.38 13.36 51.35 13.38L51.35 13.38L51.35 13.38Q51.04 13.73 50.63 13.92L50.63 13.92L50.63 13.92Q50.22 14.11 49.73 14.11L49.73 14.11L49.73 14.11Q48.72 14.11 48.05 13.62L48.05 13.62L48.05 13.62Q47.39 13.12 47.08 12.21L47.08 12.21L47.08 12.21Q46.83 11.51 46.83 10.42L46.83 10.42L46.83 10.42Q46.83 9.39 47.04 8.72L47.04 8.72L47.04 8.72Q47.33 7.80 48.01 7.28L48.01 7.28L48.01 7.28Q48.69 6.76 49.73 6.76L49.73 6.76L49.73 6.76Q50.22 6.76 50.63 6.94L50.63 6.94L50.63 6.94Q51.04 7.13 51.35 7.48L51.35 7.48L51.35 7.48Q51.38 7.50 51.41 7.50L51.41 7.50L51.41 7.50Q51.44 7.49 51.44 7.45L51.44 7.45L51.44 4.41ZM51.09 12.19L51.09 12.19Q51.42 11.58 51.42 10.43L51.42 10.43L51.42 10.43Q51.42 9.28 51.06 8.64L51.06 8.64L51.06 8.64Q50.65 7.92 49.87 7.92L49.87 7.92L49.87 7.92Q49.06 7.92 48.62 8.60L48.62 8.60L48.62 8.60Q48.17 9.30 48.17 10.44L48.17 10.44L48.17 10.44Q48.17 11.52 48.52 12.18L48.52 12.18L48.52 12.18Q48.93 12.95 49.87 12.95L49.87 12.95L49.87 12.95Q50.67 12.95 51.09 12.19L51.09 12.19ZM61.42 5.15L61.42 5.15Q61.42 5.25 61.36 5.31L61.36 5.31L61.36 5.31Q61.31 5.36 61.21 5.36L61.21 5.36L56.34 5.36L56.34 5.36Q56.27 5.36 56.27 5.43L56.27 5.43L56.27 8.41L56.27 8.41Q56.27 8.48 56.34 8.48L56.34 8.48L59.65 8.48L59.65 8.48Q59.75 8.48 59.81 8.54L59.81 8.54L59.81 8.54Q59.86 8.60 59.86 8.69L59.86 8.69L59.86 9.44L59.86 9.44Q59.86 9.53 59.81 9.59L59.81 9.59L59.81 9.59Q59.75 9.65 59.65 9.65L59.65 9.65L56.34 9.65L56.34 9.65Q56.27 9.65 56.27 9.72L56.27 9.72L56.27 13.79L56.27 13.79Q56.27 13.89 56.21 13.94L56.21 13.94L56.21 13.94Q56.15 14 56.06 14L56.06 14L55.13 14L55.13 14Q55.03 14 54.98 13.94L54.98 13.94L54.98 13.94Q54.92 13.89 54.92 13.79L54.92 13.79L54.92 4.41L54.92 4.41Q54.92 4.31 54.98 4.26L54.98 4.26L54.98 4.26Q55.03 4.20 55.13 4.20L55.13 4.20L61.21 4.20L61.21 4.20Q61.31 4.20 61.36 4.26L61.36 4.26L61.36 4.26Q61.42 4.31 61.42 4.41L61.42 4.41L61.42 5.15ZM66.91 7.08L66.91 7.08Q66.91 6.99 66.96 6.93L66.96 6.93L66.96 6.93Q67.02 6.87 67.12 6.87L67.12 6.87L68.03 6.87L68.03 6.87Q68.12 6.87 68.18 6.93L68.18 6.93L68.18 6.93Q68.24 6.99 68.24 7.08L68.24 7.08L68.24 13.79L68.24 13.79Q68.24 13.89 68.18 13.94L68.18 13.94L68.18 13.94Q68.12 14 68.03 14L68.03 14L67.12 14L67.12 14Q67.02 14 66.96 13.94L66.96 13.94L66.96 13.94Q66.91 13.89 66.91 13.79L66.91 13.79L66.91 13.37L66.91 13.37Q66.91 13.33 66.88 13.32L66.88 13.32L66.88 13.32Q66.85 13.31 66.82 13.34L66.82 13.34L66.82 13.34Q66.26 14.10 65.11 14.10L65.11 14.10L65.11 14.10Q64.43 14.10 63.85 13.83L63.85 13.83L63.85 13.83Q63.27 13.57 62.92 13.05L62.92 13.05L62.92 13.05Q62.57 12.53 62.57 11.79L62.57 11.79L62.57 7.08L62.57 7.08Q62.57 6.99 62.62 6.93L62.62 6.93L62.62 6.93Q62.68 6.87 62.78 6.87L62.78 6.87L63.69 6.87L63.69 6.87Q63.78 6.87 63.84 6.93L63.84 6.93L63.84 6.93Q63.90 6.99 63.90 7.08L63.90 7.08L63.90 11.37L63.90 11.37Q63.90 12.10 64.28 12.52L64.28 12.52L64.28 12.52Q64.67 12.94 65.37 12.94L65.37 12.94L65.37 12.94Q66.07 12.94 66.49 12.51L66.49 12.51L66.49 12.51Q66.91 12.08 66.91 11.37L66.91 11.37L66.91 7.08ZM73.37 6.78L73.37 6.78Q74.52 6.78 75.19 7.44L75.19 7.44L75.19 7.44Q75.87 8.11 75.87 9.24L75.87 9.24L75.87 13.79L75.87 13.79Q75.87 13.89 75.81 13.94L75.81 13.94L75.81 13.94Q75.75 14 75.66 14L75.66 14L74.73 14L74.73 14Q74.63 14 74.58 13.94L74.58 13.94L74.58 13.94Q74.52 13.89 74.52 13.79L74.52 13.79L74.52 9.51L74.52 9.51Q74.52 8.81 74.12 8.37L74.12 8.37L74.12 8.37Q73.71 7.94 73.04 7.94L73.04 7.94L73.04 7.94Q72.44 7.94 72.02 8.29L72.02 8.29L72.02 8.29Q71.61 8.65 71.54 9.25L71.54 9.25L71.54 13.79L71.54 13.79Q71.54 13.89 71.48 13.94L71.48 13.94L71.48 13.94Q71.43 14 71.33 14L71.33 14L70.41 14L70.41 14Q70.31 14 70.25 13.94L70.25 13.94L70.25 13.94Q70.20 13.89 70.20 13.79L70.20 13.79L70.20 7.08L70.20 7.08Q70.20 6.99 70.25 6.93L70.25 6.93L70.25 6.93Q70.31 6.87 70.41 6.87L70.41 6.87L71.33 6.87L71.33 6.87Q71.43 6.87 71.48 6.93L71.48 6.93L71.48 6.93Q71.54 6.99 71.54 7.08L71.54 7.08L71.54 7.48L71.54 7.48Q71.54 7.52 71.57 7.53L71.57 7.53L71.57 7.53Q71.60 7.55 71.61 7.52L71.61 7.52L71.61 7.52Q72.20 6.78 73.37 6.78L73.37 6.78ZM82.12 4.41L82.12 4.41Q82.12 4.31 82.18 4.26L82.18 4.26L82.18 4.26Q82.24 4.20 82.33 4.20L82.33 4.20L83.26 4.20L83.26 4.20Q83.36 4.20 83.41 4.26L83.41 4.26L83.41 4.26Q83.47 4.31 83.47 4.41L83.47 4.41L83.47 13.79L83.47 13.79Q83.47 13.89 83.41 13.94L83.41 13.94L83.41 13.94Q83.36 14 83.26 14L83.26 14L82.33 14L82.33 14Q82.24 14 82.18 13.94L82.18 13.94L82.18 13.94Q82.12 13.89 82.12 13.79L82.12 13.79L82.12 13.43L82.12 13.43Q82.12 13.38 82.10 13.37L82.10 13.37L82.10 13.37Q82.07 13.36 82.04 13.38L82.04 13.38L82.04 13.38Q81.73 13.73 81.32 13.92L81.32 13.92L81.32 13.92Q80.91 14.11 80.42 14.11L80.42 14.11L80.42 14.11Q79.41 14.11 78.74 13.62L78.74 13.62L78.74 13.62Q78.08 13.12 77.77 12.21L77.77 12.21L77.77 12.21Q77.52 11.51 77.52 10.42L77.52 10.42L77.52 10.42Q77.52 9.39 77.73 8.72L77.73 8.72L77.73 8.72Q78.02 7.80 78.70 7.28L78.70 7.28L78.70 7.28Q79.38 6.76 80.42 6.76L80.42 6.76L80.42 6.76Q80.91 6.76 81.32 6.94L81.32 6.94L81.32 6.94Q81.73 7.13 82.04 7.48L82.04 7.48L82.04 7.48Q82.07 7.50 82.10 7.50L82.10 7.50L82.10 7.50Q82.12 7.49 82.12 7.45L82.12 7.45L82.12 4.41ZM81.77 12.19L81.77 12.19Q82.11 11.58 82.11 10.43L82.11 10.43L82.11 10.43Q82.11 9.28 81.75 8.64L81.75 8.64L81.75 8.64Q81.34 7.92 80.56 7.92L80.56 7.92L80.56 7.92Q79.74 7.92 79.31 8.60L79.31 8.60L79.31 8.60Q78.86 9.30 78.86 10.44L78.86 10.44L78.86 10.44Q78.86 11.52 79.21 12.18L79.21 12.18L79.21 12.18Q79.62 12.95 80.56 12.95L80.56 12.95L80.56 12.95Q81.35 12.95 81.77 12.19L81.77 12.19ZM86.23 5.81L86.23 5.81Q85.82 5.81 85.56 5.56L85.56 5.56L85.56 5.56Q85.30 5.32 85.30 4.93L85.30 4.93L85.30 4.93Q85.30 4.54 85.56 4.29L85.56 4.29L85.56 4.29Q85.82 4.05 86.23 4.05L86.23 4.05L86.23 4.05Q86.63 4.05 86.88 4.29L86.88 4.29L86.88 4.29Q87.14 4.54 87.14 4.93L87.14 4.93L87.14 4.93Q87.14 5.32 86.88 5.56L86.88 5.56L86.88 5.56Q86.63 5.81 86.23 5.81L86.23 5.81ZM85.76 14L85.76 14Q85.67 14 85.61 13.94L85.61 13.94L85.61 13.94Q85.55 13.89 85.55 13.79L85.55 13.79L85.55 7.08L85.55 7.08Q85.55 6.99 85.61 6.93L85.61 6.93L85.61 6.93Q85.67 6.87 85.76 6.87L85.76 6.87L86.69 6.87L86.69 6.87Q86.79 6.87 86.84 6.93L86.84 6.93L86.84 6.93Q86.90 6.99 86.90 7.08L86.90 7.08L86.90 13.79L86.90 13.79Q86.90 13.89 86.84 13.94L86.84 13.94L86.84 13.94Q86.79 14 86.69 14L86.69 14L85.76 14ZM92.13 6.78L92.13 6.78Q93.28 6.78 93.95 7.44L93.95 7.44L93.95 7.44Q94.63 8.11 94.63 9.24L94.63 9.24L94.63 13.79L94.63 13.79Q94.63 13.89 94.57 13.94L94.57 13.94L94.57 13.94Q94.51 14 94.42 14L94.42 14L93.49 14L93.49 14Q93.39 14 93.34 13.94L93.34 13.94L93.34 13.94Q93.28 13.89 93.28 13.79L93.28 13.79L93.28 9.51L93.28 9.51Q93.28 8.81 92.88 8.37L92.88 8.37L92.88 8.37Q92.47 7.94 91.80 7.94L91.80 7.94L91.80 7.94Q91.20 7.94 90.78 8.29L90.78 8.29L90.78 8.29Q90.37 8.65 90.30 9.25L90.30 9.25L90.30 13.79L90.30 13.79Q90.30 13.89 90.24 13.94L90.24 13.94L90.24 13.94Q90.19 14 90.09 14L90.09 14L89.17 14L89.17 14Q89.07 14 89.01 13.94L89.01 13.94L89.01 13.94Q88.96 13.89 88.96 13.79L88.96 13.79L88.96 7.08L88.96 7.08Q88.96 6.99 89.01 6.93L89.01 6.93L89.01 6.93Q89.07 6.87 89.17 6.87L89.17 6.87L90.09 6.87L90.09 6.87Q90.19 6.87 90.24 6.93L90.24 6.93L90.24 6.93Q90.30 6.99 90.30 7.08L90.30 7.08L90.30 7.48L90.30 7.48Q90.30 7.52 90.33 7.53L90.33 7.53L90.33 7.53Q90.36 7.55 90.37 7.52L90.37 7.52L90.37 7.52Q90.96 6.78 92.13 6.78L92.13 6.78ZM100.93 7.08L100.93 7.08Q100.93 6.99 100.98 6.93L100.98 6.93L100.98 6.93Q101.04 6.87 101.14 6.87L101.14 6.87L102.06 6.87L102.06 6.87Q102.16 6.87 102.21 6.93L102.21 6.93L102.21 6.93Q102.27 6.99 102.27 7.08L102.27 7.08L102.27 13.64L102.27 13.64Q102.27 15.32 101.31 16.05L101.31 16.05L101.31 16.05Q100.35 16.79 98.76 16.79L98.76 16.79L98.76 16.79Q98.53 16.79 98.11 16.76L98.11 16.76L98.11 16.76Q97.92 16.76 97.92 16.53L97.92 16.53L97.94 15.71L97.94 15.71Q97.94 15.61 98.01 15.55L98.01 15.55L98.01 15.55Q98.08 15.50 98.18 15.51L98.18 15.51L98.18 15.51Q98.38 15.53 98.73 15.53L98.73 15.53L98.73 15.53Q99.89 15.53 100.41 15.09L100.41 15.09L100.41 15.09Q100.93 14.64 100.93 13.59L100.93 13.59L100.93 13.36L100.93 13.36Q100.93 13.31 100.90 13.31L100.90 13.31L100.90 13.31Q100.87 13.30 100.84 13.33L100.84 13.33L100.84 13.33Q100.24 14 99.13 14L99.13 14L99.13 14Q98.22 14 97.49 13.52L97.49 13.52L97.49 13.52Q96.75 13.05 96.47 12.12L96.47 12.12L96.47 12.12Q96.29 11.51 96.29 10.42L96.29 10.42L96.29 10.42Q96.29 9.25 96.50 8.62L96.50 8.62L96.50 8.62Q96.77 7.78 97.45 7.27L97.45 7.27L97.45 7.27Q98.13 6.76 99.05 6.76L99.05 6.76L99.05 6.76Q100.20 6.76 100.84 7.45L100.84 7.45L100.84 7.45Q100.87 7.49 100.90 7.48L100.90 7.48L100.90 7.48Q100.93 7.46 100.93 7.42L100.93 7.42L100.93 7.08ZM100.84 11.72L100.84 11.72Q100.88 11.49 100.90 11.24L100.90 11.24L100.90 11.24Q100.93 10.99 100.93 10.40L100.93 10.40L100.93 10.40Q100.93 9.81 100.90 9.57L100.90 9.57L100.90 9.57Q100.88 9.32 100.83 9.10L100.83 9.10L100.83 9.10Q100.72 8.58 100.32 8.25L100.32 8.25L100.32 8.25Q99.93 7.92 99.34 7.92L99.34 7.92L99.34 7.92Q98.76 7.92 98.36 8.25L98.36 8.25L98.36 8.25Q97.97 8.58 97.80 9.10L97.80 9.10L97.80 9.10Q97.65 9.52 97.65 10.40L97.65 10.40L97.65 10.40Q97.65 11.37 97.79 11.72L97.79 11.72L97.79 11.72Q97.93 12.24 98.34 12.56L98.34 12.56L98.34 12.56Q98.76 12.89 99.34 12.89L99.34 12.89L99.34 12.89Q99.96 12.89 100.34 12.56L100.34 12.56L100.34 12.56Q100.73 12.24 100.84 11.72L100.84 11.72Z"></path></g><defs data-v-fde0c5aa=""><!----></defs><g data-v-fde0c5aa="" id="0b36eacf-7787-4b6e-ba47-7b76effa54f3" stroke="none" fill="#E482E7" transform="matrix(1.2879197212256615,0,0,1.2879197212256615,40,129.39328446038942)"><path d="M0 16l16 16 16-16L16 0 0 16zm16 13.172L2.828 16 16 2.828 29.172 16 16 29.172z"></path><path d="M14.751 9.991v4.76h-2.262v-4.76H9.991v12.018h2.498v-4.76h2.262v4.76h2.498v-4.76h2.262v4.76h2.498V9.991h-2.498v4.76h-2.262v-4.76z"></path></g><defs data-v-fde0c5aa=""><!----></defs><g data-v-fde0c5aa="" id="8b80878b-9adf-4a04-8cd7-8f7de92c9c24" fill="#ffffff" transform="matrix(0.41423858981339384,0,0,0.41423858981339384,93.74534147470727,159.57373581952916)"><path d="M8.93 2.21L5.67 6.61L2.35 2.21L1.13 2.21L1.13 11.48L2.18 11.48L2.18 3.81L5.67 8.22L9.10 3.81L9.10 11.48L10.15 11.48L10.15 2.21ZM23.58 2.21L22.26 2.21L18.33 11.48L19.49 11.48L20.62 8.79L25.21 8.79L26.35 11.48L27.51 11.48ZM21.03 7.83L22.92 3.30L24.81 7.83ZM43.37 2.21L41.89 2.21L36.74 7.04L36.74 2.21L35.69 2.21L35.69 11.48L36.74 11.48L36.74 8.44L38.65 6.65L42.28 11.48L43.60 11.48L39.42 5.94ZM52.71 2.21L51.66 2.21L51.66 11.48L52.71 11.48ZM68.92 2.21L68.92 10.01L63.20 2.21L61.98 2.21L61.98 11.48L63.03 11.48L63.03 3.65L68.75 11.48L69.97 11.48L69.97 2.21ZM83.22 2.10C80.43 2.10 78.65 4.21 78.65 6.85C78.65 9.48 80.36 11.59 83.19 11.59C84.87 11.59 85.96 10.74 86.55 9.84L86.55 11.48L87.51 11.48L87.51 6.55L83.16 6.55L83.16 7.50L86.55 7.50C86.55 9.44 84.95 10.57 83.27 10.57C81.02 10.57 79.70 8.93 79.70 6.85C79.70 4.76 81.05 3.12 83.30 3.12C84.71 3.12 85.72 3.74 86.28 4.73L87.43 4.73C86.74 3.18 85.20 2.10 83.22 2.10ZM111.92 3.70L114.42 11.48L115.61 11.48L118.50 2.21L117.39 2.21L115.01 10.00L112.52 2.21L111.31 2.21L108.82 10.00L106.44 2.21L105.34 2.21L108.22 11.48L109.41 11.48ZM130.77 2.10C127.96 2.10 126.07 4.21 126.07 6.85C126.07 9.48 127.96 11.59 130.77 11.59C133.59 11.59 135.48 9.48 135.48 6.85C135.48 4.21 133.59 2.10 130.77 2.10ZM130.77 10.57C128.52 10.57 127.12 8.93 127.12 6.85C127.12 4.76 128.52 3.12 130.77 3.12C133.03 3.12 134.43 4.76 134.43 6.85C134.43 8.93 133.03 10.57 130.77 10.57ZM145.21 7.92L148.43 7.92L150.67 11.48L151.91 11.48L149.48 7.74C150.51 7.50 151.72 6.90 151.72 5.11C151.72 3.35 150.50 2.21 148.60 2.21L144.16 2.21L144.16 11.48L145.21 11.48ZM145.21 3.21L148.47 3.21C149.79 3.21 150.67 3.93 150.67 5.11C150.67 6.55 149.41 6.93 148.41 6.93L145.21 6.93ZM160.52 2.21L160.52 11.48L166.63 11.48L166.63 10.47L161.57 10.47L161.57 2.21ZM178.89 2.21L174.99 2.21L174.99 11.48L178.89 11.48C181.10 11.48 183.15 9.74 183.15 6.85C183.15 3.95 181.10 2.21 178.89 2.21ZM178.85 10.49L176.04 10.49L176.04 3.21L178.85 3.21C180.82 3.21 182.10 4.86 182.10 6.85C182.10 8.83 180.82 10.49 178.85 10.49ZM205.98 2.21L204.67 2.21L200.73 11.48L201.89 11.48L203.03 8.79L207.62 8.79L208.75 11.48L209.92 11.48ZM203.43 7.83L205.32 3.30L207.21 7.83ZM233.91 6.75C234.57 6.45 235.16 5.85 235.16 4.66C235.16 3.54 234.42 2.21 232.23 2.21L228.07 2.21L228.07 11.48L232.47 11.48C234.58 11.48 235.63 10.43 235.63 9.04C235.63 7.66 234.70 7 233.91 6.75ZM229.12 3.21L232.34 3.21C233.62 3.21 234.11 3.98 234.11 4.75C234.11 5.88 233.20 6.36 232.23 6.36L229.12 6.36ZM232.58 10.49L229.12 10.49L229.12 7.31L232.47 7.31C233.94 7.31 234.58 8.09 234.58 8.96C234.58 9.93 233.86 10.49 232.58 10.49ZM251.16 3.22L251.16 2.21L244.34 2.21L244.34 11.48L251.16 11.48L251.16 10.47L245.39 10.47L245.39 7.35L250.54 7.35L250.54 6.33L245.39 6.33L245.39 3.22ZM266.43 2.21L258.92 2.21L258.92 3.22L262.15 3.22L262.15 11.48L263.20 11.48L263.20 3.22L266.43 3.22ZM281.34 2.21L273.83 2.21L273.83 3.22L277.06 3.22L277.06 11.48L278.11 11.48L278.11 3.22L281.34 3.22ZM296.49 3.22L296.49 2.21L289.67 2.21L289.67 11.48L296.49 11.48L296.49 10.47L290.72 10.47L290.72 7.35L295.88 7.35L295.88 6.33L290.72 6.33L290.72 3.22ZM306.24 7.92L309.46 7.92L311.70 11.48L312.94 11.48L310.51 7.74C311.54 7.50 312.75 6.90 312.75 5.11C312.75 3.35 311.53 2.21 309.62 2.21L305.19 2.21L305.19 11.48L306.24 11.48ZM306.24 3.21L309.50 3.21C310.81 3.21 311.70 3.93 311.70 5.11C311.70 6.55 310.44 6.93 309.44 6.93L306.24 6.93ZM332.58 8.18L335.71 8.18C337.68 8.18 338.90 7.03 338.90 5.19C338.90 3.37 337.68 2.21 335.71 2.21L331.53 2.21L331.53 11.48L332.58 11.48ZM335.64 3.21C337.09 3.21 337.85 3.96 337.85 5.19C337.85 6.44 337.09 7.20 335.64 7.20L332.58 7.20L332.58 3.21ZM347.33 2.21L347.33 11.48L353.43 11.48L353.43 10.47L348.38 10.47L348.38 2.21ZM365.95 2.21L364.63 2.21L360.70 11.48L361.86 11.48L362.99 8.79L367.58 8.79L368.72 11.48L369.88 11.48ZM363.40 7.83L365.29 3.30L367.18 7.83ZM381.85 10.57C379.60 10.57 378.34 8.93 378.34 6.85C378.34 4.76 379.60 3.12 381.85 3.12C383.38 3.12 384.38 3.85 384.86 4.98L385.97 4.98C385.38 3.29 383.87 2.10 381.77 2.10C378.98 2.10 377.29 4.21 377.29 6.85C377.29 9.48 378.98 11.59 381.77 11.59C383.87 11.59 385.38 10.40 385.97 8.71L384.86 8.71C384.38 9.84 383.38 10.57 381.85 10.57ZM401.35 3.22L401.35 2.21L394.53 2.21L394.53 11.48L401.35 11.48L401.35 10.47L395.58 10.47L395.58 7.35L400.74 7.35L400.74 6.33L395.58 6.33L395.58 3.22Z"></path></g></svg>